<svg width="48.000000" height="48.000000" viewBox="0 0 48 48" fill="none" xmlns="http://www.w3.org/2000/svg" xmlns:xlink="http://www.w3.org/1999/xlink">
	<desc>
			Created with Pixso.
	</desc>
	<defs>
		<clipPath id="clip993_496">
			<rect id="clarity:users-line" width="48.000000" height="44.210526" transform="translate(0.500000 2.000000)" fill="white" fill-opacity="0"/>
		</clipPath>
		<clipPath id="clip965_120">
			<rect id="icn settings .icn-lg" width="48.000000" height="48.000000" fill="white" fill-opacity="0"/>
		</clipPath>
	</defs>
	<rect id="icn settings .icn-lg" width="48.000000" height="48.000000" fill="#FFFFFF" fill-opacity="0"/>
	<g clip-path="url(#clip965_120)">
		<rect id="clarity:users-line" width="48.000000" height="44.210526" transform="translate(0.500000 2.000000)" fill="#FFFFFF" fill-opacity="0"/>
		<g clip-path="url(#clip993_496)">
			<path id="Vector" d="M24.3408 22.8018C28.6445 22.8018 31.9922 19.3066 31.9922 15.0171C31.9922 10.7271 28.4854 7.39062 24.1816 7.39062C19.877 7.39062 16.5293 10.8857 16.5293 15.0171C16.5293 19.3066 20.0361 22.8018 24.3408 22.8018ZM24.1816 10.5684C26.7314 10.5684 28.8047 12.6338 28.8047 15.1758C28.8047 17.7178 26.7314 19.6245 24.1816 19.6245C21.6309 19.6245 19.7178 17.5591 19.7178 15.1758C19.7178 12.6338 21.79 10.5684 24.1816 10.5684Z" fill="#0D5C63" fill-opacity="1.000000" fill-rule="nonzero"/>
			<path id="Vector" d="M47.9336 21.8486C44.9043 19.1479 40.9189 17.7178 36.7744 17.8765L35.499 17.8765C35.1807 19.1479 34.7021 20.2598 34.0645 21.2134C35.0205 21.0542 35.8184 21.0542 36.7744 21.0542C39.8037 20.8955 42.832 21.8486 45.2236 23.5962L45.2236 35.0356L48.4121 35.0356L48.4121 22.3252L47.9336 21.8486Z" fill="#0D5C63" fill-opacity="1.000000" fill-rule="nonzero"/>
			<path id="Vector" d="M33.1084 7.7085C33.9062 5.80176 36.1377 4.84863 38.21 5.64258C40.123 6.43701 41.0791 8.66162 40.2822 10.7271C39.6445 12.1567 38.21 13.1104 36.7754 13.1104C36.4561 13.1104 35.9785 13.1104 35.6592 12.9512C35.8184 13.7456 35.8184 14.54 35.8184 15.1758L35.8184 16.1289C36.1377 16.1289 36.4561 16.2876 36.7754 16.2876C40.7607 16.2876 43.9492 13.1104 43.9492 9.29688C43.9492 5.3252 40.7607 2.14746 36.9346 2.14746C34.3838 2.14746 32.1523 3.41846 30.877 5.64258C31.6738 6.11963 32.4707 6.75488 33.1084 7.7085Z" fill="#0D5C63" fill-opacity="1.000000" fill-rule="nonzero"/>
			<path id="Vector" d="M14.9355 21.3721C14.2979 20.4185 13.8193 19.3066 13.5 18.0356L12.2256 18.0356C8.08008 17.8765 4.09473 19.3066 1.06641 21.8486L0.587891 22.3252L0.587891 35.0356L3.77637 35.0356L3.77637 23.5962C6.32715 21.8486 9.19629 20.895 12.2256 21.0542C13.1816 21.0542 14.1377 21.2129 14.9355 21.3721Z" fill="#0D5C63" fill-opacity="1.000000" fill-rule="nonzero"/>
			<path id="Vector" d="M12.2246 16.1294C12.5439 16.1294 12.8623 16.1294 13.1807 15.9707L13.1807 15.0176C13.1807 14.2231 13.1807 13.4287 13.3408 12.793C13.0215 12.9521 12.5439 12.9521 12.2246 12.9521C10.1523 12.9521 8.39844 11.2041 8.39844 9.13867C8.39844 7.07324 10.1523 5.32568 12.2246 5.32568C13.8184 5.32568 15.2539 6.27881 15.8916 7.70898C16.5293 6.91455 17.4854 6.12012 18.2822 5.48438C16.21 2.14795 11.9062 1.03613 8.55762 3.10156C5.20996 5.16699 4.09473 9.45654 6.16699 12.793C7.44238 14.8584 9.67383 16.1294 12.2246 16.1294Z" fill="#0D5C63" fill-opacity="1.000000" fill-rule="nonzero"/>
			<path id="Vector" d="M37.4131 31.3818L37.0938 30.9053C33.9053 27.4097 29.4424 25.3442 24.6592 25.5034C19.877 25.3442 15.2539 27.4097 12.0654 30.9053L11.7471 31.3818L11.7471 43.4565C11.7471 44.8867 12.8633 46.1577 14.457 46.1577L34.8623 46.1577C36.2969 46.1577 37.5723 44.8867 37.5723 43.4565L37.5723 31.3818L37.4131 31.3818ZM34.2246 42.98L14.9355 42.98L14.9355 32.4937C17.4863 29.9517 20.9932 28.6807 24.6592 28.6807C28.167 28.522 31.6738 29.9517 34.2246 32.4937L34.2246 42.98Z" fill="#0D5C63" fill-opacity="1.000000" fill-rule="nonzero"/>
		</g>
	</g>
</svg>
