<svg width="35.840820" height="48.000977" viewBox="0 0 35.8408 48.001" fill="none" xmlns="http://www.w3.org/2000/svg" xmlns:xlink="http://www.w3.org/1999/xlink">
	<desc>
			Created with Pixso.
	</desc>
	<defs/>
	<path id="Vector" d="M9.06445 33.9971C8.25391 33.1826 8.67676 33.4121 6.71973 32.8862C5.83301 32.6475 5.05273 32.188 4.34668 31.6377L0.112305 42.0664C-0.297852 43.0762 0.467773 44.1729 1.55273 44.1318L6.46973 43.9434L9.85254 47.5322C10.5986 48.3232 11.9092 48.0767 12.3193 47.0669L17.1777 35.1025C16.165 35.6689 15.043 36.001 13.8818 36.001C12.0615 36.001 10.3516 35.2891 9.06445 33.9971ZM35.7285 42.0664L31.4941 31.6377C30.7881 32.189 30.0078 32.6475 29.1201 32.8862C27.1533 33.415 27.585 33.1846 26.7754 33.9971C25.4883 35.2891 23.7773 36.001 21.958 36.001C20.7969 36.001 19.6738 35.668 18.6621 35.1025L23.5205 47.0669C23.9297 48.0767 25.2412 48.3232 25.9873 47.5322L29.3701 43.9434L34.2881 44.1318C35.373 44.1729 36.1377 43.0752 35.7285 42.0664ZM24.5469 31.876C25.9727 30.418 26.1367 30.5435 28.167 29.9878C29.4639 29.6323 30.4775 28.5962 30.8242 27.2705C31.5225 24.6084 31.3418 24.9297 33.2461 22.9814C34.1953 22.0112 34.5664 20.5967 34.2188 19.271C33.5215 16.6104 33.5205 16.9819 34.2188 14.3184C34.5664 12.9927 34.1953 11.5781 33.2461 10.6074C31.3418 8.65967 31.5225 8.97998 30.8242 6.31836C30.4775 4.99316 29.4639 3.95703 28.167 3.60156C25.5654 2.88818 25.8789 3.07471 23.9717 1.12598C23.0225 0.155273 21.6387 -0.224121 20.3418 0.130859C17.7412 0.84375 18.1045 0.844727 15.498 0.130859C14.2021 -0.224121 12.8174 0.154297 11.8682 1.12598C9.96387 3.07373 10.2773 2.88818 7.67383 3.60156C6.37793 3.95703 5.36426 4.99316 5.0166 6.31836C4.31934 8.97998 4.5 8.65967 2.59473 10.6074C1.64551 11.5781 1.27441 12.9927 1.62207 14.3184C2.31934 16.9771 2.32031 16.606 1.62207 19.27C1.27539 20.5957 1.64551 22.0103 2.59473 22.9814C4.5 24.9297 4.31836 24.6084 5.0166 27.2705C5.36426 28.5962 6.37793 29.6323 7.67383 29.9878C9.7627 30.5596 9.91895 30.4697 11.2939 31.876C12.5283 33.1387 14.4521 33.3643 15.9355 32.4214C16.5293 32.043 17.2178 31.8418 17.9209 31.8418C18.624 31.8418 19.3115 32.043 19.9053 32.4214C21.3887 33.3643 23.3125 33.1387 24.5469 31.876ZM9.11523 16.4971C9.11523 11.5254 13.0576 7.49512 17.9199 7.49512C22.7832 7.49512 26.7256 11.5254 26.7256 16.4971C26.7256 21.4688 22.7832 25.499 17.9199 25.499C13.0576 25.499 9.11523 21.4688 9.11523 16.4971Z" fill="#0D5C63" fill-opacity="1.000000" fill-rule="nonzero"/>
</svg>
