<svg width="47.316406" height="40.557129" viewBox="0 0 47.3164 40.5571" fill="none" xmlns="http://www.w3.org/2000/svg" xmlns:xlink="http://www.w3.org/1999/xlink">
	<desc>
			Created with Pixso.
	</desc>
	<defs/>
	<path id="Vector" d="M42.2471 8.44922L37.1768 8.44922L37.1768 3.37988C37.1768 2.4834 36.8213 1.62354 36.1875 0.989746C35.5537 0.355957 34.6934 0 33.7979 0L13.5186 0C12.623 0 11.7627 0.355957 11.1289 0.989746C10.4951 1.62354 10.1396 2.4834 10.1396 3.37988L10.1396 8.44922L5.06934 8.44922C3.72461 8.44922 2.43555 8.9834 1.48438 9.93408C0.53418 10.8848 0 12.1743 0 13.519L0 37.1772C0 38.0737 0.356445 38.9331 0.990234 39.5669C1.62402 40.2007 2.4834 40.5571 3.37988 40.5571L43.9365 40.5571C44.833 40.5571 45.6924 40.2007 46.3262 39.5669C46.96 38.9331 47.3164 38.0737 47.3164 37.1772L47.3164 13.519C47.3164 12.1743 46.7822 10.8848 45.832 9.93408C44.8809 8.9834 43.5918 8.44922 42.2471 8.44922ZM13.5186 3.37988L33.7979 3.37988L33.7979 8.44922L13.5186 8.44922L13.5186 3.37988ZM43.9365 37.1772L3.37988 37.1772L3.37988 21.9683L16.8984 21.9683L16.8984 30.4175L30.418 30.4175L30.418 21.9683L43.9365 21.9683L43.9365 37.1772ZM20.2783 21.9683L27.0381 21.9683L27.0381 27.0381L20.2783 27.0381L20.2783 21.9683ZM3.37988 18.5884L3.37988 13.519C3.37988 13.0708 3.55762 12.6411 3.875 12.3242C4.19141 12.0073 4.62109 11.8291 5.06934 11.8291L42.2471 11.8291C42.6953 11.8291 43.125 12.0073 43.4414 12.3242C43.7588 12.6411 43.9365 13.0708 43.9365 13.519L43.9365 18.5884L3.37988 18.5884Z" fill="#0D5C63" fill-opacity="1.000000" fill-rule="nonzero"/>
</svg>
