<svg width="47.875977" height="26.812012" viewBox="0 0 47.876 26.812" fill="none" xmlns="http://www.w3.org/2000/svg" xmlns:xlink="http://www.w3.org/1999/xlink">
	<desc>
			Created with Pixso.
	</desc>
	<defs/>
	<path id="Vector" d="M43.0879 12.187C42.5127 12.1914 41.9424 12.3013 41.4053 12.5112L35.665 7.72656C35.8066 7.20508 35.9062 6.66406 35.9062 6.09375C35.9062 2.71533 33.2402 0 29.9219 0C26.6045 0 23.9375 2.71533 23.9375 6.09375C23.9375 7.05859 24.1768 7.9585 24.5654 8.76758L17.6016 17.1475C17.3223 17.0942 17.04 17.0659 16.7568 17.062C16.3281 17.062 15.9238 17.1353 15.5312 17.2427L9.39551 10.9951C9.50293 10.5981 9.5752 10.186 9.5752 9.75C9.5752 7.04932 7.43945 4.875 4.78711 4.875C2.13477 4.875 0 7.04932 0 9.75C0 12.4507 2.13477 14.6245 4.78711 14.6245C5.21582 14.6245 5.62012 14.5518 6.0127 14.4443L12.1484 20.6914C12.0332 21.0962 11.9727 21.5156 11.9688 21.937C11.9688 24.6377 14.1045 26.812 16.7568 26.812C19.4092 26.812 21.5439 24.6377 21.5439 21.937C21.5439 21.3594 21.4287 20.8159 21.25 20.3013L28.2227 11.9116C28.7656 12.0728 29.3291 12.187 29.9219 12.187C30.8672 12.1821 31.7969 11.9473 32.6348 11.5024L38.377 16.2871C38.332 16.543 38.3066 16.8022 38.3008 17.062C38.3008 19.7627 40.4355 21.937 43.0879 21.937C45.7402 21.937 47.876 19.7627 47.876 17.062C47.876 14.3613 45.7402 12.187 43.0879 12.187Z" fill="#0D5C63" fill-opacity="1.000000" fill-rule="nonzero"/>
</svg>
