<svg width="23.972656" height="24.961304" viewBox="0 0 23.9727 24.9613" fill="none" xmlns="http://www.w3.org/2000/svg" xmlns:xlink="http://www.w3.org/1999/xlink">
	<desc>
			Created with Pixso.
	</desc>
	<defs/>
	<path id="Vector" d="M23.6953 0.302856C23.5605 0.163208 23.3896 0.0664062 23.2041 0.0240479C23.0176 -0.0183105 22.8242 -0.0045166 22.6455 0.0637207L0.645508 8.38367C0.456055 8.4585 0.291992 8.59167 0.176758 8.76526C0.0615234 8.93896 0 9.14502 0 9.35608C0 9.56714 0.0615234 9.77319 0.176758 9.9469C0.291992 10.1205 0.456055 10.2537 0.645508 10.3285L10.2451 14.3221L14.085 24.306C14.1572 24.4948 14.2812 24.6573 14.4414 24.7737C14.6006 24.8901 14.79 24.9553 14.9854 24.9613C15.1875 24.957 15.3838 24.889 15.5479 24.7666C15.7119 24.644 15.8369 24.4725 15.9053 24.2749L23.9053 1.3949C23.9736 1.21094 23.9902 1.0105 23.9531 0.817139C23.916 0.623901 23.8262 0.445435 23.6953 0.302856ZM14.9854 21.0093L12.1953 13.7292L16.9854 8.74768L15.5752 7.28125L10.7451 12.3044L3.78516 9.36133L21.3154 2.77808L14.9854 21.0093Z" fill="#8EC2F2" fill-opacity="1.000000" fill-rule="nonzero"/>
</svg>
