<svg width="48.000000" height="37.919922" viewBox="0 0 48 37.9199" fill="none" xmlns="http://www.w3.org/2000/svg" xmlns:xlink="http://www.w3.org/1999/xlink">
	<desc>
			Created with Pixso.
	</desc>
	<defs>
		<clipPath id="clip993_486">
			<rect id="carbon:notebook" width="48.000000" height="37.919998" fill="white" fill-opacity="0"/>
		</clipPath>
	</defs>
	<rect id="carbon:notebook" width="48.000000" height="37.919998" fill="#FFFFFF" fill-opacity="0"/>
	<g clip-path="url(#clip993_486)">
		<path id="Vector" d="M29.1416 8.62402L41.1396 8.62402L41.1396 12.0693L29.1416 12.0693L29.1416 8.62402Z" fill="#FFFFFF" fill-opacity="1.000000" fill-rule="nonzero"/>
		<path id="Vector" d="M29.1416 17.2373L41.1396 17.2373L41.1396 20.6826L29.1416 20.6826L29.1416 17.2373Z" fill="#FFFFFF" fill-opacity="1.000000" fill-rule="nonzero"/>
		<path id="Vector" d="M29.1416 25.8506L41.1396 25.8506L41.1396 29.2959L29.1416 29.2959L29.1416 25.8506Z" fill="#FFFFFF" fill-opacity="1.000000" fill-rule="nonzero"/>
		<path id="Vector" d="M44.5674 0.0112305L3.43164 0.0112305C2.52344 0.012207 1.65137 0.375488 1.00879 1.02148C0.366211 1.66748 0.00488281 2.54297 0.00390625 3.45654L0.00390625 34.4644C0.00488281 35.3779 0.366211 36.2539 1.00879 36.8994C1.65137 37.5454 2.52344 37.9087 3.43164 37.9097L44.5674 37.9097C45.4766 37.9082 46.3477 37.5449 46.9902 36.8989C47.6328 36.2534 47.9941 35.3779 47.9951 34.4644L47.9951 3.45654C47.9941 2.54297 47.6328 1.66748 46.9902 1.02148C46.3477 0.375488 45.4766 0.012207 44.5674 0.0112305ZM3.43164 3.45654L22.2861 3.45654L22.2861 34.4644L3.43164 34.4644L3.43164 3.45654ZM25.7139 34.4644L25.7139 3.45654L44.5674 3.45654L44.5713 34.4644L25.7139 34.4644Z" fill="#FFFFFF" fill-opacity="1.000000" fill-rule="nonzero"/>
	</g>
</svg>
