<svg width="48.000000" height="48.000000" viewBox="0 0 48 48" fill="none" xmlns="http://www.w3.org/2000/svg" xmlns:xlink="http://www.w3.org/1999/xlink">
	<desc>
			Created with Pixso.
	</desc>
	<defs>
		<clipPath id="clip993_476">
			<rect id="carbon:tool-box" width="48.000000" height="40.708862" transform="translate(0.000000 4.000000)" fill="white" fill-opacity="0"/>
		</clipPath>
		<clipPath id="clip964_18504">
			<rect id="icn settings .icn-lg" width="48.000000" height="48.000000" fill="white" fill-opacity="0"/>
		</clipPath>
	</defs>
	<rect id="icn settings .icn-lg" width="48.000000" height="48.000000" fill="#FFFFFF" fill-opacity="0"/>
	<g clip-path="url(#clip964_18504)">
		<rect id="carbon:tool-box" width="48.000000" height="40.708862" transform="translate(0.000000 4.000000)" fill="#FFFFFF" fill-opacity="0"/>
		<g clip-path="url(#clip993_476)">
			<path id="Vector" d="M42.5889 12.5254L37.5186 12.5254L37.5186 7.45605C37.5186 6.55957 37.1631 5.69971 36.5293 5.06592C35.8955 4.43213 35.0352 4.07617 34.1396 4.07617L13.8604 4.07617C12.9648 4.07617 12.1045 4.43213 11.4707 5.06592C10.8369 5.69971 10.4814 6.55957 10.4814 7.45605L10.4814 12.5254L5.41113 12.5254C4.06641 12.5254 2.77734 13.0596 1.82617 14.0103C0.875977 14.9609 0.341797 16.2505 0.341797 17.5952L0.341797 41.2534C0.341797 42.1499 0.698242 43.0093 1.33203 43.6431C1.96582 44.2769 2.8252 44.6333 3.72168 44.6333L44.2783 44.6333C45.1748 44.6333 46.0342 44.2769 46.668 43.6431C47.3018 43.0093 47.6582 42.1499 47.6582 41.2534L47.6582 17.5952C47.6582 16.2505 47.124 14.9609 46.1738 14.0103C45.2227 13.0596 43.9336 12.5254 42.5889 12.5254ZM13.8604 7.45605L34.1396 7.45605L34.1396 12.5254L13.8604 12.5254L13.8604 7.45605ZM44.2783 41.2534L3.72168 41.2534L3.72168 26.0444L17.2402 26.0444L17.2402 34.4937L30.7598 34.4937L30.7598 26.0444L44.2783 26.0444L44.2783 41.2534ZM20.6201 26.0444L27.3799 26.0444L27.3799 31.1143L20.6201 31.1143L20.6201 26.0444ZM3.72168 22.6646L3.72168 17.5952C3.72168 17.147 3.89941 16.7173 4.2168 16.4004C4.5332 16.0835 4.96289 15.9053 5.41113 15.9053L42.5889 15.9053C43.0371 15.9053 43.4668 16.0835 43.7832 16.4004C44.1006 16.7173 44.2783 17.147 44.2783 17.5952L44.2783 22.6646L3.72168 22.6646Z" fill="#0D5C63" fill-opacity="1.000000" fill-rule="nonzero"/>
		</g>
	</g>
</svg>
