<svg width="48.000000" height="48.000000" viewBox="0 0 48 48" fill="none" xmlns="http://www.w3.org/2000/svg" xmlns:xlink="http://www.w3.org/1999/xlink">
	<desc>
			Created with Pixso.
	</desc>
	<defs>
		<clipPath id="clip993_480">
			<rect id="ant-design:shop-twotone" width="48.000000" height="47.414635" fill="white" fill-opacity="0"/>
		</clipPath>
		<clipPath id="clip964_18511">
			<rect id="icn settings .icn-lg" width="48.000000" height="48.000000" fill="white" fill-opacity="0"/>
		</clipPath>
	</defs>
	<rect id="icn settings .icn-lg" width="48.000000" height="48.000000" fill="#FFFFFF" fill-opacity="0"/>
	<g clip-path="url(#clip964_18511)">
		<rect id="ant-design:shop-twotone" width="48.000000" height="47.414635" fill="#FFFFFF" fill-opacity="0"/>
		<g clip-path="url(#clip993_480)">
			<g opacity="0.150000">
				<path id="Vector" d="M43.6504 13.75L4.35059 13.75C4.33203 13.75 4.32031 13.7617 4.32031 13.7798L4.32031 19.1851C4.32031 22.729 7.26074 25.6035 10.8779 25.6035C13.3203 25.6035 15.4502 24.2998 16.584 22.3618C16.7588 22.0596 17.0879 21.8696 17.4424 21.8696C17.7959 21.8696 18.1201 22.0596 18.3008 22.3618C19.4287 24.2998 21.5586 25.6035 24 25.6035C26.4482 25.6035 28.584 24.2939 29.7061 22.3496C29.8799 22.0537 30.1982 21.8696 30.54 21.8696L30.5762 21.8696C30.9238 21.8696 31.2363 22.0537 31.4102 22.3496C32.5381 24.2939 34.6738 25.6035 37.1221 25.6035C40.7402 25.6035 43.6807 22.729 43.6807 19.1851L43.6807 13.7798C43.6807 13.7617 43.668 13.75 43.6504 13.75Z" fill="#0D5C63" fill-opacity="1.000000" fill-rule="nonzero"/>
			</g>
			<path id="Vector" d="M46.2002 9.48877L46.2002 1.89648C46.2002 0.847656 45.3418 0 44.2803 0L3.71973 0C2.6582 0 1.7998 0.847656 1.7998 1.89648L1.7998 9.48877C0.797852 9.54834 0 10.3721 0 11.3794L0 19.1851C-0.00390625 20.6196 0.290039 22.0396 0.864258 23.3574C1.12207 23.9624 1.44043 24.5312 1.7998 25.0703L1.7998 45.5181C1.7998 46.561 2.6582 47.4146 3.71973 47.4146L44.2803 47.4146C45.3418 47.4146 46.2002 46.5669 46.2002 45.5181L46.2002 25.0703C46.5654 24.5298 46.8789 23.9565 47.1357 23.3574C47.7061 22.0361 48 20.6313 48 19.1851L48 11.3794C48 10.3721 47.2021 9.54834 46.2002 9.48877ZM6.12012 4.26709L41.8799 4.26709L41.8799 9.48291L6.12012 9.48291L6.12012 4.26709ZM27.8398 43.1533L20.1602 43.1533L20.1602 36.9834L27.8398 36.9834L27.8398 43.1533ZM41.9043 43.1533L31.6797 43.1533L31.6797 35.0869C31.6797 34.0376 30.8223 33.1904 29.7598 33.1904L18.2402 33.1904C17.1777 33.1904 16.3203 34.0376 16.3203 35.0869L16.3203 43.1533L6.12012 43.1533L6.12012 28.7983C6.29395 28.8813 6.47363 28.9644 6.66016 29.0356C7.99805 29.5928 9.41992 29.8711 10.8838 29.8711C12.3477 29.8711 13.7637 29.5928 15.1084 29.0356C15.9355 28.6919 16.7158 28.2534 17.4297 27.7256C17.4424 27.7197 17.4541 27.7197 17.4658 27.7256C18.1826 28.2554 18.9619 28.6953 19.7881 29.0356C21.126 29.5928 22.5479 29.8711 24.0117 29.8711C25.4756 29.8711 26.8916 29.5928 28.2363 29.0356C29.0645 28.6919 29.8438 28.2534 30.5576 27.7256C30.5703 27.7197 30.582 27.7197 30.5938 27.7256C31.3105 28.2554 32.0898 28.6953 32.916 29.0356C34.2539 29.5928 35.6758 29.8711 37.1396 29.8711C38.6045 29.8711 40.0195 29.5928 41.3643 29.0356C41.5439 28.9585 41.7236 28.8813 41.9043 28.7983L41.9043 43.1533ZM43.6797 19.1851C43.6797 22.7295 40.7402 25.604 37.1221 25.604C34.6738 25.604 32.5381 24.2939 31.4102 22.3501C31.2363 22.0537 30.9238 21.8701 30.5762 21.8701L30.54 21.8701C30.1982 21.8701 29.8799 22.0537 29.7061 22.3501C29.1299 23.3418 28.2988 24.165 27.2969 24.7368C26.2949 25.3081 25.1572 25.6074 24 25.604C21.5576 25.604 19.4277 24.2998 18.2998 22.3618C18.1201 22.0596 17.7959 21.8701 17.4424 21.8701C17.0879 21.8701 16.7578 22.0596 16.584 22.3618C16.0049 23.3496 15.1729 24.1694 14.1709 24.7388C13.1689 25.3076 12.0332 25.6064 10.8779 25.604C7.25977 25.604 4.32031 22.7295 4.32031 19.1851L4.32031 13.7798C4.32031 13.7622 4.33203 13.75 4.34961 13.75L43.6504 13.75C43.668 13.75 43.6797 13.7622 43.6797 13.7798L43.6797 19.1851Z" fill="#0D5C63" fill-opacity="1.000000" fill-rule="nonzero"/>
		</g>
	</g>
</svg>
