<svg width="29.750977" height="29.654785" viewBox="0 0 29.751 29.6548" fill="none" xmlns="http://www.w3.org/2000/svg" xmlns:xlink="http://www.w3.org/1999/xlink">
	<desc>
			Created with Pixso.
	</desc>
	<defs/>
	<path id="Vector" d="M17.2363 7.77148C16.7725 8.09302 16.25 8.31909 15.6973 8.43628C15.1455 8.55347 14.5752 8.55957 14.0215 8.4541C13.4668 8.34863 12.9385 8.13379 12.4688 7.82227C11.998 7.5105 11.5938 7.1084 11.2803 6.63916C10.9678 6.16968 10.751 5.64258 10.6426 5.08862C10.5352 4.53467 10.5391 3.9646 10.6543 3.41211C10.7695 2.85962 10.9932 2.33569 11.3135 1.87061C11.6328 1.40552 12.042 1.00903 12.5166 0.703857C13.4541 0.0847168 14.5986 -0.138184 15.7002 0.0839844C16.8008 0.306152 17.7695 0.955078 18.3936 1.88916C19.0176 2.82324 19.2461 3.96631 19.0303 5.0686C18.8135 6.1709 18.1699 7.14258 17.2393 7.77148L17.2363 7.77148ZM16.0576 2.47168C15.8262 2.30518 15.5635 2.18701 15.2852 2.12427C15.0068 2.06128 14.7197 2.05493 14.4385 2.10547C14.1582 2.15625 13.8906 2.2627 13.6523 2.41895C13.4141 2.5752 13.209 2.77759 13.0508 3.01465C12.8916 3.25146 12.7822 3.51782 12.7295 3.79785C12.6758 4.07788 12.6787 4.36572 12.7393 4.64453C12.7988 4.9231 12.915 5.18701 13.0791 5.42017C13.2432 5.65308 13.4521 5.85083 13.6943 6.00146C14.1621 6.28564 14.7217 6.37817 15.2559 6.26025C15.79 6.14233 16.2588 5.82251 16.5635 5.36792C16.8672 4.91309 16.9854 4.35864 16.8906 3.81934C16.7969 3.28027 16.498 2.79834 16.0576 2.47388L16.0576 2.47168ZM21.6035 2.5354C22.2168 2.12329 22.9541 1.9375 23.6885 2.0105C24.4238 2.0835 25.1104 2.4104 25.6309 2.93506C26.001 3.30859 26.2744 3.76709 26.4258 4.27075C26.5781 4.77441 26.6035 5.30762 26.502 5.82373C26.3994 6.33984 26.1729 6.82275 25.8398 7.23071C25.5078 7.63843 25.0801 7.95825 24.5957 8.1626C24.0137 8.40601 23.3711 8.47021 22.7529 8.34668C22.1338 8.22339 21.5654 7.91797 21.1211 7.46973C20.7871 7.13403 20.5312 6.72876 20.3721 6.28247C20.2139 5.83643 20.1553 5.36084 20.2012 4.88965C20.248 4.41821 20.3975 3.96313 20.6406 3.5564C20.8828 3.1499 21.2129 2.802 21.6055 2.5376L21.6035 2.5354ZM22.624 5.95679C22.8232 6.15552 23.0938 6.2666 23.375 6.26611C23.5146 6.26587 23.6523 6.23804 23.7812 6.18433C23.9092 6.13086 24.0264 6.05225 24.125 5.95361C24.2236 5.85474 24.3008 5.73755 24.3545 5.60864C24.4072 5.47974 24.4346 5.34155 24.4346 5.20215C24.4336 5.06274 24.4062 4.9248 24.3525 4.79614C24.2988 4.66748 24.2207 4.55054 24.1221 4.45215C23.9238 4.25317 23.6562 4.13892 23.376 4.13354C23.2354 4.1333 23.0967 4.16064 22.9678 4.21436C22.8379 4.26807 22.7207 4.34692 22.6221 4.44629C22.5225 4.54565 22.4443 4.66382 22.3916 4.79346C22.3389 4.92334 22.3125 5.06226 22.3135 5.20239C22.3145 5.48535 22.4258 5.75684 22.624 5.95898L22.624 5.95679ZM4.6543 24.3975L8.50098 24.3975L8.50098 26.5332L4.6543 26.5332C3.98145 26.5271 3.33789 26.2542 2.86523 25.7744C2.39062 25.293 2.125 24.644 2.12598 23.9683L2.12598 20.1221C1.83984 20.1125 1.55859 20.0449 1.29883 19.9238C1.04004 19.8025 0.807617 19.6299 0.617188 19.4165C0.414062 19.2112 0.254883 18.967 0.149414 18.6985C0.0429688 18.4302 -0.00683594 18.1431 0.000976562 17.8547L0.000976562 13.2178C0.00683594 12.2148 0.404297 11.2566 1.10547 10.5447C1.80469 9.84131 2.75098 9.4397 3.74121 9.43335L7.65039 9.43335C7.12305 10.0613 6.72656 10.7881 6.48242 11.571L3.74121 11.571C3.30957 11.5835 2.89941 11.7598 2.59375 12.064C2.29297 12.3728 2.125 12.7871 2.12598 13.2178L2.12598 17.9609L4.25098 17.9609L4.25098 23.9661C4.24609 24.0239 4.25293 24.0823 4.27148 24.1375C4.28906 24.1926 4.31836 24.2434 4.35742 24.2871C4.44238 24.353 4.54688 24.3901 4.6543 24.3933L4.6543 24.3975ZM20.167 10.5469C19.8193 10.1956 19.4053 9.91675 18.9502 9.72607C18.4941 9.5354 18.0049 9.43652 17.5107 9.4353L12.2412 9.4353C11.25 9.44336 10.3027 9.84277 9.60547 10.5469C8.9043 11.2585 8.50684 12.217 8.50098 13.22L8.50098 19.9731C8.49805 20.5532 8.71875 21.1118 9.11719 21.533C9.30762 21.7461 9.54004 21.9185 9.7998 22.0398C10.0586 22.1609 10.3398 22.2285 10.626 22.2385L10.626 27.1748C10.624 27.5117 10.6885 27.8457 10.8164 28.1577C10.9434 28.4695 11.1318 28.7529 11.3691 28.9917C11.752 29.3489 12.2344 29.5803 12.751 29.6548L17.001 29.6548C17.5986 29.5764 18.1465 29.2798 18.5381 28.822C18.9307 28.3643 19.1396 27.7776 19.126 27.1748L19.126 22.2363C19.4121 22.2268 19.6934 22.1594 19.9521 22.0381C20.2119 21.9167 20.4434 21.7444 20.6348 21.531C20.8369 21.3259 20.9961 21.082 21.1016 20.814C21.208 20.5459 21.2588 20.2593 21.251 19.9712L21.251 13.2178C21.252 12.2195 20.8633 11.2603 20.167 10.5447L20.167 10.5469ZM19.126 20.0774L17.001 20.0774L17.001 27.1748C16.999 27.2869 16.9531 27.3936 16.873 27.4724C16.8369 27.5154 16.791 27.5491 16.7393 27.5713C16.6875 27.5935 16.6318 27.6033 16.5762 27.5999L13.1543 27.5999C13.0439 27.5947 12.9385 27.5483 12.8594 27.4697C12.7812 27.3911 12.7344 27.2859 12.7295 27.1748L12.7295 20.0774L10.626 20.0774L10.626 13.2178C10.626 12.7866 10.7939 12.3721 11.0938 12.064C11.3994 11.7598 11.8096 11.5835 12.2412 11.571L17.5107 11.571C17.833 11.5767 18.1455 11.6763 18.4121 11.8574C18.6777 12.0386 18.8857 12.2937 19.0088 12.5911C19.0898 12.79 19.1299 13.0032 19.126 13.2178L19.126 20.0774ZM25.0967 26.531L21.251 26.531L21.251 24.3955L25.0762 24.3955C25.1836 24.3923 25.2881 24.3552 25.373 24.2891C25.416 24.2473 25.4492 24.197 25.4717 24.1414C25.4932 24.0857 25.5039 24.0259 25.501 23.9661L25.501 17.9609L27.626 17.9609L27.626 13.2178C27.627 12.7871 27.459 12.3728 27.1582 12.064C26.8525 11.7598 26.4424 11.5835 26.0107 11.571L23.2695 11.571C23.0254 10.7881 22.6279 10.0613 22.1006 9.43335L26.0107 9.43335C27.001 9.44238 27.9482 9.8418 28.6455 10.5447C29.3467 11.2566 29.7441 12.2148 29.751 13.2178L29.751 17.8547C29.751 18.4348 29.5322 18.9915 29.1367 19.4124C28.7412 19.8352 28.2021 20.0879 27.626 20.1199L27.626 23.9661C27.626 24.644 27.3604 25.2922 26.8867 25.7725C26.4141 26.2522 25.7705 26.5249 25.0967 26.531ZM6.37598 1.99585C5.74316 1.99512 5.125 2.18311 4.60059 2.53589C4.07617 2.88892 3.66797 3.39038 3.43066 3.97632C3.19043 4.56201 3.12793 5.20532 3.25098 5.82617C3.375 6.44702 3.67773 7.01807 4.12305 7.46753C4.56836 7.91675 5.1377 8.2229 5.75781 8.34717C6.37793 8.47119 7.02148 8.40771 7.60547 8.16455C8.18945 7.92139 8.6875 7.50977 9.03613 6.98218C9.38477 6.45459 9.56836 5.83496 9.56348 5.20239C9.56348 4.35229 9.22754 3.53638 8.62793 2.93506C8.33301 2.6377 7.98242 2.40186 7.5957 2.24072C7.20898 2.07935 6.79492 1.99634 6.37598 1.99585ZM6.37598 6.27124C6.23535 6.27148 6.09668 6.24414 5.96777 6.19043C5.83789 6.13672 5.7207 6.05786 5.62207 5.9585C5.52246 5.85913 5.44434 5.74097 5.3916 5.61133C5.33887 5.48145 5.3125 5.34253 5.31348 5.20239C5.31348 4.92017 5.42578 4.64966 5.625 4.44946C5.82324 4.24927 6.09375 4.13574 6.37598 4.13354C6.65723 4.13843 6.92578 4.25293 7.12402 4.45239C7.32227 4.6521 7.43457 4.9209 7.43848 5.20239C7.4375 5.48462 7.32617 5.75513 7.12695 5.95532C6.92773 6.15552 6.6582 6.26904 6.37598 6.27124Z" fill="#FF7B47" fill-opacity="1.000000" fill-rule="evenodd"/>
</svg>
