<svg width="32.000000" height="32.000000" viewBox="0 0 32 32" fill="none" xmlns="http://www.w3.org/2000/svg" xmlns:xlink="http://www.w3.org/1999/xlink">
	<desc>
			Created with Pixso.
	</desc>
	<defs>
		<clipPath id="clip964_17543">
			<rect id="icn settings .icn-md" width="32.000000" height="32.000000" fill="white" fill-opacity="0"/>
		</clipPath>
	</defs>
	<rect id="icn settings .icn-md" width="32.000000" height="32.000000" fill="#FFFFFF" fill-opacity="0"/>
	<g clip-path="url(#clip964_17543)">
		<path id="Vector" d="M29.8154 10.3645L27.8164 13.3708C28.7803 15.2932 29.2529 17.4248 29.1904 19.5747C29.1279 21.7244 28.5332 23.825 27.459 25.6882L4.93652 25.6882C3.54102 23.2673 2.96289 20.4609 3.28711 17.6853C3.6123 14.9097 4.82324 12.3127 6.73926 10.2791C8.65625 8.24561 11.1777 6.88379 13.9287 6.39575C16.6807 5.90771 19.5166 6.31934 22.0156 7.56958L25.0215 5.5708C21.9609 3.60815 18.3301 2.72876 14.7109 3.073C11.0908 3.41748 7.69141 4.96582 5.05566 7.47046C2.4209 9.9751 0.701172 13.2913 0.172852 16.8887C-0.355469 20.4858 0.337891 24.1565 2.1416 27.3132C2.4248 27.8044 2.83203 28.2129 3.32324 28.498C3.81348 28.7832 4.36914 28.9348 4.93652 28.9382L27.4434 28.9382C28.0156 28.9407 28.5791 28.7915 29.0752 28.5061C29.5713 28.2207 29.9844 27.8093 30.2705 27.3132C31.7676 24.7197 32.5186 21.7627 32.4414 18.769C32.3643 15.7751 31.4609 12.8611 29.832 10.3484L29.8154 10.3645ZM13.9062 21.4795C14.209 21.7817 14.5674 22.0215 14.9619 22.1851C15.3564 22.3486 15.7793 22.4326 16.2061 22.4326C16.6328 22.4326 17.0557 22.3486 17.4502 22.1851C17.8447 22.0215 18.2031 21.7817 18.5059 21.4795L27.7031 7.68335L13.9062 16.8809C13.6045 17.1826 13.3652 17.541 13.2012 17.9355C13.0381 18.3301 12.9531 18.7532 12.9531 19.1802C12.9531 19.6072 13.0381 20.0303 13.2012 20.4248C13.3652 20.8193 13.6045 21.1777 13.9062 21.4795Z" fill="#FF7B47" fill-opacity="1.000000" fill-rule="nonzero"/>
	</g>
</svg>
